# Tiled2Unity generated file. Do not modify by hand.
# Wavefront file for 'map1_mesh_0003.obj'

# Vertices (Count = 560)
v -928 -32 0
v -960 -32 0
v -960 0 0
v -928 0 0
v -256 -64 0
v -288 -64 0
v -288 -32 0
v -256 -32 0
v -224 -64 0
v -256 -64 0
v -256 -32 0
v -224 -32 0
v -64 -64 0
v -96 -64 0
v -96 -32 0
v -64 -32 0
v -32 -64 0
v -64 -64 0
v -64 -32 0
v -32 -32 0
v -864 -96 0
v -896 -96 0
v -896 -64 0
v -864 -64 0
v -480 -96 0
v -512 -96 0
v -512 -64 0
v -480 -64 0
v -448 -96 0
v -480 -96 0
v -480 -64 0
v -448 -64 0
v -384 -96 0
v -416 -96 0
v -416 -64 0
v -384 -64 0
v -224 -96 0
v -256 -96 0
v -256 -64 0
v -224 -64 0
v -32 -96 0
v -64 -96 0
v -64 -64 0
v -32 -64 0
v -896 -128 0
v -928 -128 0
v -928 -96 0
v -896 -96 0
v -448 -128 0
v -480 -128 0
v -480 -96 0
v -448 -96 0
v -96 -128 0
v -128 -128 0
v -128 -96 0
v -96 -96 0
v -800 -160 0
v -832 -160 0
v -832 -128 0
v -800 -128 0
v -256 -160 0
v -288 -160 0
v -288 -128 0
v -256 -128 0
v -1120 -192 0
v -1152 -192 0
v -1152 -160 0
v -1120 -160 0
v -1088 -192 0
v -1120 -192 0
v -1120 -160 0
v -1088 -160 0
v -288 -192 0
v -320 -192 0
v -320 -160 0
v -288 -160 0
v -192 -192 0
v -224 -192 0
v -224 -160 0
v -192 -160 0
v -160 -192 0
v -192 -192 0
v -192 -160 0
v -160 -160 0
v -1216 -224 0
v -1248 -224 0
v -1248 -192 0
v -1216 -192 0
v -992 -224 0
v -1024 -224 0
v -1024 -192 0
v -992 -192 0
v -896 -224 0
v -928 -224 0
v -928 -192 0
v -896 -192 0
v -480 -224 0
v -512 -224 0
v -512 -192 0
v -480 -192 0
v -160 -224 0
v -192 -224 0
v -192 -192 0
v -160 -192 0
v -1056 -256 0
v -1088 -256 0
v -1088 -224 0
v -1056 -224 0
v -192 -256 0
v -224 -256 0
v -224 -224 0
v -192 -224 0
v -1216 -288 0
v -1248 -288 0
v -1248 -256 0
v -1216 -256 0
v -416 -288 0
v -448 -288 0
v -448 -256 0
v -416 -256 0
v -384 -288 0
v -416 -288 0
v -416 -256 0
v -384 -256 0
v -32 -288 0
v -64 -288 0
v -64 -256 0
v -32 -256 0
v -384 -320 0
v -416 -320 0
v -416 -288 0
v -384 -288 0
v -128 -320 0
v -160 -320 0
v -160 -288 0
v -128 -288 0
v -576 -352 0
v -608 -352 0
v -608 -320 0
v -576 -320 0
v -288 -352 0
v -320 -352 0
v -320 -320 0
v -288 -320 0
v -384 -416 0
v -416 -416 0
v -416 -384 0
v -384 -384 0
v -288 -416 0
v -320 -416 0
v -320 -384 0
v -288 -384 0
v -256 -416 0
v -288 -416 0
v -288 -384 0
v -256 -384 0
v -160 -416 0
v -192 -416 0
v -192 -384 0
v -160 -384 0
v -128 -416 0
v -160 -416 0
v -160 -384 0
v -128 -384 0
v -768 -448 0
v -800 -448 0
v -800 -416 0
v -768 -416 0
v -736 -448 0
v -768 -448 0
v -768 -416 0
v -736 -416 0
v -448 -448 0
v -480 -448 0
v -480 -416 0
v -448 -416 0
v -416 -448 0
v -448 -448 0
v -448 -416 0
v -416 -416 0
v -288 -448 0
v -320 -448 0
v -320 -416 0
v -288 -416 0
v -256 -448 0
v -288 -448 0
v -288 -416 0
v -256 -416 0
v -128 -448 0
v -160 -448 0
v -160 -416 0
v -128 -416 0
v -736 -480 0
v -768 -480 0
v -768 -448 0
v -736 -448 0
v -544 -480 0
v -576 -480 0
v -576 -448 0
v -544 -448 0
v -416 -480 0
v -448 -480 0
v -448 -448 0
v -416 -448 0
v -864 -512 0
v -896 -512 0
v -896 -480 0
v -864 -480 0
v -832 -512 0
v -864 -512 0
v -864 -480 0
v -832 -480 0
v -672 -512 0
v -704 -512 0
v -704 -480 0
v -672 -480 0
v -832 -544 0
v -864 -544 0
v -864 -512 0
v -832 -512 0
v -512 -544 0
v -544 -544 0
v -544 -512 0
v -512 -512 0
v -480 -544 0
v -512 -544 0
v -512 -512 0
v -480 -512 0
v -384 -544 0
v -416 -544 0
v -416 -512 0
v -384 -512 0
v -896 -576 0
v -928 -576 0
v -928 -544 0
v -896 -544 0
v -672 -576 0
v -704 -576 0
v -704 -544 0
v -672 -544 0
v -640 -576 0
v -672 -576 0
v -672 -544 0
v -640 -544 0
v -480 -576 0
v -512 -576 0
v -512 -544 0
v -480 -544 0
v -1248 -608 0
v -1280 -608 0
v -1280 -576 0
v -1248 -576 0
v -1216 -608 0
v -1248 -608 0
v -1248 -576 0
v -1216 -576 0
v -1056 -608 0
v -1088 -608 0
v -1088 -576 0
v -1056 -576 0
v -640 -608 0
v -672 -608 0
v -672 -576 0
v -640 -576 0
v -1216 -640 0
v -1248 -640 0
v -1248 -608 0
v -1216 -608 0
v -960 -640 0
v -992 -640 0
v -992 -608 0
v -960 -608 0
v -768 -640 0
v -800 -640 0
v -800 -608 0
v -768 -608 0
v -736 -640 0
v -768 -640 0
v -768 -608 0
v -736 -608 0
v -576 -640 0
v -608 -640 0
v -608 -608 0
v -576 -608 0
v -448 -640 0
v -480 -640 0
v -480 -608 0
v -448 -608 0
v -416 -640 0
v -448 -640 0
v -448 -608 0
v -416 -608 0
v -256 -640 0
v -288 -640 0
v -288 -608 0
v -256 -608 0
v -1152 -672 0
v -1184 -672 0
v -1184 -640 0
v -1152 -640 0
v -1120 -672 0
v -1152 -672 0
v -1152 -640 0
v -1120 -640 0
v -1024 -672 0
v -1056 -672 0
v -1056 -640 0
v -1024 -640 0
v -992 -672 0
v -1024 -672 0
v -1024 -640 0
v -992 -640 0
v -736 -672 0
v -768 -672 0
v -768 -640 0
v -736 -640 0
v -416 -672 0
v -448 -672 0
v -448 -640 0
v -416 -640 0
v -32 -672 0
v -64 -672 0
v -64 -640 0
v -32 -640 0
v -1120 -704 0
v -1152 -704 0
v -1152 -672 0
v -1120 -672 0
v -992 -704 0
v -1024 -704 0
v -1024 -672 0
v -992 -672 0
v -224 -704 0
v -256 -704 0
v -256 -672 0
v -224 -672 0
v -704 -736 0
v -736 -736 0
v -736 -704 0
v -704 -704 0
v -640 -736 0
v -672 -736 0
v -672 -704 0
v -640 -704 0
v -608 -736 0
v -640 -736 0
v -640 -704 0
v -608 -704 0
v -384 -736 0
v -416 -736 0
v -416 -704 0
v -384 -704 0
v -1024 -768 0
v -1056 -768 0
v -1056 -736 0
v -1024 -736 0
v -992 -768 0
v -1024 -768 0
v -1024 -736 0
v -992 -736 0
v -864 -768 0
v -896 -768 0
v -896 -736 0
v -864 -736 0
v -832 -768 0
v -864 -768 0
v -864 -736 0
v -832 -736 0
v -608 -768 0
v -640 -768 0
v -640 -736 0
v -608 -736 0
v -96 -768 0
v -128 -768 0
v -128 -736 0
v -96 -736 0
v -1216 -800 0
v -1248 -800 0
v -1248 -768 0
v -1216 -768 0
v -992 -800 0
v -1024 -800 0
v -1024 -768 0
v -992 -768 0
v -832 -800 0
v -864 -800 0
v -864 -768 0
v -832 -768 0
v -1152 -832 0
v -1184 -832 0
v -1184 -800 0
v -1152 -800 0
v -1120 -832 0
v -1152 -832 0
v -1152 -800 0
v -1120 -800 0
v -736 -832 0
v -768 -832 0
v -768 -800 0
v -736 -800 0
v -512 -832 0
v -544 -832 0
v -544 -800 0
v -512 -800 0
v -1120 -864 0
v -1152 -864 0
v -1152 -832 0
v -1120 -832 0
v -928 -864 0
v -960 -864 0
v -960 -832 0
v -928 -832 0
v -928 -896 0
v -960 -896 0
v -960 -864 0
v -928 -864 0
v -896 -896 0
v -928 -896 0
v -928 -864 0
v -896 -864 0
v -1184 -928 0
v -1216 -928 0
v -1216 -896 0
v -1184 -896 0
v -1152 -928 0
v -1184 -928 0
v -1184 -896 0
v -1152 -896 0
v -896 -928 0
v -928 -928 0
v -928 -896 0
v -896 -896 0
v -1152 -960 0
v -1184 -960 0
v -1184 -928 0
v -1152 -928 0
v -1024 -960 0
v -1056 -960 0
v -1056 -928 0
v -1024 -928 0
v -736 -1152 0
v -768 -1152 0
v -768 -1120 0
v -736 -1120 0
v -704 -1152 0
v -736 -1152 0
v -736 -1120 0
v -704 -1120 0
v -672 -1152 0
v -704 -1152 0
v -704 -1120 0
v -672 -1120 0
v -640 -1152 0
v -672 -1152 0
v -672 -1120 0
v -640 -1120 0
v -608 -1152 0
v -640 -1152 0
v -640 -1120 0
v -608 -1120 0
v -576 -1152 0
v -608 -1152 0
v -608 -1120 0
v -576 -1120 0
v -544 -1152 0
v -576 -1152 0
v -576 -1120 0
v -544 -1120 0
v -512 -1152 0
v -544 -1152 0
v -544 -1120 0
v -512 -1120 0
v -480 -1152 0
v -512 -1152 0
v -512 -1120 0
v -480 -1120 0
v -448 -1152 0
v -480 -1152 0
v -480 -1120 0
v -448 -1120 0
v -384 -1152 0
v -416 -1152 0
v -416 -1120 0
v -384 -1120 0
v -352 -1152 0
v -384 -1152 0
v -384 -1120 0
v -352 -1120 0
v -192 -1152 0
v -224 -1152 0
v -224 -1120 0
v -192 -1120 0
v -160 -1152 0
v -192 -1152 0
v -192 -1120 0
v -160 -1120 0
v -32 -1152 0
v -64 -1152 0
v -64 -1120 0
v -32 -1120 0
v 0 -1152 0
v -32 -1152 0
v -32 -1120 0
v 0 -1120 0
v -704 -1184 0
v -736 -1184 0
v -736 -1152 0
v -704 -1152 0
v -640 -1184 0
v -672 -1184 0
v -672 -1152 0
v -640 -1152 0
v -576 -1184 0
v -608 -1184 0
v -608 -1152 0
v -576 -1152 0
v -512 -1184 0
v -544 -1184 0
v -544 -1152 0
v -512 -1152 0
v -448 -1184 0
v -480 -1184 0
v -480 -1152 0
v -448 -1152 0
v -352 -1184 0
v -384 -1184 0
v -384 -1152 0
v -352 -1152 0
v -256 -1184 0
v -288 -1184 0
v -288 -1152 0
v -256 -1152 0
v -224 -1184 0
v -256 -1184 0
v -256 -1152 0
v -224 -1152 0
v -160 -1184 0
v -192 -1184 0
v -192 -1152 0
v -160 -1152 0
v -96 -1184 0
v -128 -1184 0
v -128 -1152 0
v -96 -1152 0
v -64 -1184 0
v -96 -1184 0
v -96 -1152 0
v -64 -1152 0
v 0 -1184 0
v -32 -1184 0
v -32 -1152 0
v 0 -1152 0
v -224 -1216 0
v -256 -1216 0
v -256 -1184 0
v -224 -1184 0
v -64 -1216 0
v -96 -1216 0
v -96 -1184 0
v -64 -1184 0

# Texture cooridinates (Count = 16)
vt 0.8 0.99
vt 0.9 0.99
vt 0.9 1
vt 0.8 1
vt 0.6 0.94
vt 0.7 0.94
vt 0.7 0.95
vt 0.6 0.95
vt 0.5 0.94
vt 0.5 0.95
vt 0.9 0.97
vt 1 0.97
vt 1 0.98
vt 0.9 0.98
vt 0.5 0.93
vt 0.6 0.93

# Normal
vn 0 0 -1

# Mesh description
g map1_mesh_0003

# Faces
f 1/1/1 2/2/1 3/3/1 4/4/1
f 5/5/1 6/6/1 7/7/1 8/8/1
f 9/9/1 10/5/1 11/8/1 12/10/1
f 13/5/1 14/6/1 15/7/1 16/8/1
f 17/9/1 18/5/1 19/8/1 20/10/1
f 21/1/1 22/2/1 23/3/1 24/4/1
f 25/5/1 26/6/1 27/7/1 28/8/1
f 29/9/1 30/5/1 31/8/1 32/10/1
f 33/11/1 34/12/1 35/13/1 36/14/1
f 37/15/1 38/16/1 39/5/1 40/9/1
f 41/15/1 42/16/1 43/5/1 44/9/1
f 45/1/1 46/2/1 47/3/1 48/4/1
f 49/15/1 50/16/1 51/5/1 52/9/1
f 53/11/1 54/12/1 55/13/1 56/14/1
f 57/1/1 58/2/1 59/3/1 60/4/1
f 61/11/1 62/12/1 63/13/1 64/14/1
f 65/1/1 66/2/1 67/3/1 68/4/1
f 69/1/1 70/2/1 71/3/1 72/4/1
f 73/11/1 74/12/1 75/13/1 76/14/1
f 77/5/1 78/6/1 79/7/1 80/8/1
f 81/9/1 82/5/1 83/8/1 84/10/1
f 85/1/1 86/2/1 87/3/1 88/4/1
f 89/1/1 90/2/1 91/3/1 92/4/1
f 93/1/1 94/2/1 95/3/1 96/4/1
f 97/11/1 98/12/1 99/13/1 100/14/1
f 101/15/1 102/16/1 103/5/1 104/9/1
f 105/1/1 106/2/1 107/3/1 108/4/1
f 109/11/1 110/12/1 111/13/1 112/14/1
f 113/1/1 114/2/1 115/3/1 116/4/1
f 117/5/1 118/6/1 119/7/1 120/8/1
f 121/9/1 122/5/1 123/8/1 124/10/1
f 125/11/1 126/12/1 127/13/1 128/14/1
f 129/15/1 130/16/1 131/5/1 132/9/1
f 133/11/1 134/12/1 135/13/1 136/14/1
f 137/11/1 138/12/1 139/13/1 140/14/1
f 141/11/1 142/12/1 143/13/1 144/14/1
f 145/11/1 146/12/1 147/13/1 148/14/1
f 149/5/1 150/6/1 151/7/1 152/8/1
f 153/9/1 154/5/1 155/8/1 156/10/1
f 157/5/1 158/6/1 159/7/1 160/8/1
f 161/9/1 162/5/1 163/8/1 164/10/1
f 165/5/1 166/6/1 167/7/1 168/8/1
f 169/9/1 170/5/1 171/8/1 172/10/1
f 173/5/1 174/6/1 175/7/1 176/8/1
f 177/9/1 178/5/1 179/8/1 180/10/1
f 181/11/1 182/12/1 183/13/1 184/14/1
f 185/15/1 186/16/1 187/5/1 188/9/1
f 189/15/1 190/16/1 191/5/1 192/9/1
f 193/15/1 194/16/1 195/5/1 196/9/1
f 197/11/1 198/12/1 199/13/1 200/14/1
f 201/15/1 202/16/1 203/5/1 204/9/1
f 205/5/1 206/6/1 207/7/1 208/8/1
f 209/9/1 210/5/1 211/8/1 212/10/1
f 213/11/1 214/12/1 215/13/1 216/14/1
f 217/15/1 218/16/1 219/5/1 220/9/1
f 221/5/1 222/6/1 223/7/1 224/8/1
f 225/9/1 226/5/1 227/8/1 228/10/1
f 229/11/1 230/12/1 231/13/1 232/14/1
f 233/11/1 234/12/1 235/13/1 236/14/1
f 237/5/1 238/6/1 239/7/1 240/8/1
f 241/9/1 242/5/1 243/8/1 244/10/1
f 245/15/1 246/16/1 247/5/1 248/9/1
f 249/5/1 250/6/1 251/7/1 252/8/1
f 253/9/1 254/5/1 255/8/1 256/10/1
f 257/11/1 258/12/1 259/13/1 260/14/1
f 261/15/1 262/16/1 263/5/1 264/9/1
f 265/15/1 266/16/1 267/5/1 268/9/1
f 269/11/1 270/12/1 271/13/1 272/14/1
f 273/5/1 274/6/1 275/7/1 276/8/1
f 277/9/1 278/5/1 279/8/1 280/10/1
f 281/11/1 282/12/1 283/13/1 284/14/1
f 285/5/1 286/6/1 287/7/1 288/8/1
f 289/9/1 290/5/1 291/8/1 292/10/1
f 293/11/1 294/12/1 295/13/1 296/14/1
f 297/5/1 298/6/1 299/7/1 300/8/1
f 301/9/1 302/5/1 303/8/1 304/10/1
f 305/5/1 306/6/1 307/7/1 308/8/1
f 309/9/1 310/5/1 311/8/1 312/10/1
f 313/15/1 314/16/1 315/5/1 316/9/1
f 317/15/1 318/16/1 319/5/1 320/9/1
f 321/11/1 322/12/1 323/13/1 324/14/1
f 325/15/1 326/16/1 327/5/1 328/9/1
f 329/15/1 330/16/1 331/5/1 332/9/1
f 333/11/1 334/12/1 335/13/1 336/14/1
f 337/11/1 338/12/1 339/13/1 340/14/1
f 341/5/1 342/6/1 343/7/1 344/8/1
f 345/9/1 346/5/1 347/8/1 348/10/1
f 349/11/1 350/12/1 351/13/1 352/14/1
f 353/5/1 354/6/1 355/7/1 356/8/1
f 357/9/1 358/5/1 359/8/1 360/10/1
f 361/5/1 362/6/1 363/7/1 364/8/1
f 365/9/1 366/5/1 367/8/1 368/10/1
f 369/15/1 370/16/1 371/5/1 372/9/1
f 373/11/1 374/12/1 375/13/1 376/14/1
f 377/11/1 378/12/1 379/13/1 380/14/1
f 381/15/1 382/16/1 383/5/1 384/9/1
f 385/15/1 386/16/1 387/5/1 388/9/1
f 389/5/1 390/6/1 391/7/1 392/8/1
f 393/9/1 394/5/1 395/8/1 396/10/1
f 397/11/1 398/12/1 399/13/1 400/14/1
f 401/11/1 402/12/1 403/13/1 404/14/1
f 405/15/1 406/16/1 407/5/1 408/9/1
f 409/11/1 410/12/1 411/13/1 412/14/1
f 413/5/1 414/6/1 415/7/1 416/8/1
f 417/9/1 418/5/1 419/8/1 420/10/1
f 421/5/1 422/6/1 423/7/1 424/8/1
f 425/9/1 426/5/1 427/8/1 428/10/1
f 429/15/1 430/16/1 431/5/1 432/9/1
f 433/15/1 434/16/1 435/5/1 436/9/1
f 437/11/1 438/12/1 439/13/1 440/14/1
f 441/5/1 442/6/1 443/7/1 444/8/1
f 445/9/1 446/5/1 447/8/1 448/10/1
f 449/5/1 450/6/1 451/7/1 452/8/1
f 453/9/1 454/5/1 455/8/1 456/10/1
f 457/5/1 458/6/1 459/7/1 460/8/1
f 461/9/1 462/5/1 463/8/1 464/10/1
f 465/5/1 466/6/1 467/7/1 468/8/1
f 469/9/1 470/5/1 471/8/1 472/10/1
f 473/5/1 474/6/1 475/7/1 476/8/1
f 477/9/1 478/5/1 479/8/1 480/10/1
f 481/5/1 482/6/1 483/7/1 484/8/1
f 485/9/1 486/5/1 487/8/1 488/10/1
f 489/5/1 490/6/1 491/7/1 492/8/1
f 493/9/1 494/5/1 495/8/1 496/10/1
f 497/5/1 498/6/1 499/7/1 500/8/1
f 501/9/1 502/5/1 503/8/1 504/10/1
f 505/15/1 506/16/1 507/5/1 508/9/1
f 509/15/1 510/16/1 511/5/1 512/9/1
f 513/15/1 514/16/1 515/5/1 516/9/1
f 517/15/1 518/16/1 519/5/1 520/9/1
f 521/15/1 522/16/1 523/5/1 524/9/1
f 525/15/1 526/16/1 527/5/1 528/9/1
f 529/5/1 530/6/1 531/7/1 532/8/1
f 533/9/1 534/5/1 535/8/1 536/10/1
f 537/15/1 538/16/1 539/5/1 540/9/1
f 541/5/1 542/6/1 543/7/1 544/8/1
f 545/9/1 546/5/1 547/8/1 548/10/1
f 549/15/1 550/16/1 551/5/1 552/9/1
f 553/15/1 554/16/1 555/5/1 556/9/1
f 557/15/1 558/16/1 559/5/1 560/9/1

