# Tiled2Unity generated file. Do not modify by hand.
# Wavefront file for 'map1_mesh_0006.obj'

# Vertices (Count = 136)
v -1152 -32 0
v -1184 -32 0
v -1184 0 0
v -1152 0 0
v -1120 -32 0
v -1152 -32 0
v -1152 0 0
v -1120 0 0
v -1088 -32 0
v -1120 -32 0
v -1120 0 0
v -1088 0 0
v -1024 -32 0
v -1056 -32 0
v -1056 0 0
v -1024 0 0
v -992 -32 0
v -1024 -32 0
v -1024 0 0
v -992 0 0
v -1248 -64 0
v -1280 -64 0
v -1280 -32 0
v -1248 -32 0
v -1216 -64 0
v -1248 -64 0
v -1248 -32 0
v -1216 -32 0
v -1184 -64 0
v -1216 -64 0
v -1216 -32 0
v -1184 -32 0
v -1152 -64 0
v -1184 -64 0
v -1184 -32 0
v -1152 -32 0
v -1120 -64 0
v -1152 -64 0
v -1152 -32 0
v -1120 -32 0
v -1088 -64 0
v -1120 -64 0
v -1120 -32 0
v -1088 -32 0
v -1056 -64 0
v -1088 -64 0
v -1088 -32 0
v -1056 -32 0
v -1024 -64 0
v -1056 -64 0
v -1056 -32 0
v -1024 -32 0
v -992 -64 0
v -1024 -64 0
v -1024 -32 0
v -992 -32 0
v -1248 -96 0
v -1280 -96 0
v -1280 -64 0
v -1248 -64 0
v -1216 -96 0
v -1248 -96 0
v -1248 -64 0
v -1216 -64 0
v -1184 -96 0
v -1216 -96 0
v -1216 -64 0
v -1184 -64 0
v -1152 -96 0
v -1184 -96 0
v -1184 -64 0
v -1152 -64 0
v -1120 -96 0
v -1152 -96 0
v -1152 -64 0
v -1120 -64 0
v -1088 -96 0
v -1120 -96 0
v -1120 -64 0
v -1088 -64 0
v -1056 -96 0
v -1088 -96 0
v -1088 -64 0
v -1056 -64 0
v -992 -96 0
v -1024 -96 0
v -1024 -64 0
v -992 -64 0
v -1152 -128 0
v -1184 -128 0
v -1184 -96 0
v -1152 -96 0
v -1120 -128 0
v -1152 -128 0
v -1152 -96 0
v -1120 -96 0
v -1088 -128 0
v -1120 -128 0
v -1120 -96 0
v -1088 -96 0
v -1024 -128 0
v -1056 -128 0
v -1056 -96 0
v -1024 -96 0
v -1248 -160 0
v -1280 -160 0
v -1280 -128 0
v -1248 -128 0
v -1216 -160 0
v -1248 -160 0
v -1248 -128 0
v -1216 -128 0
v -1152 -160 0
v -1184 -160 0
v -1184 -128 0
v -1152 -128 0
v -1120 -160 0
v -1152 -160 0
v -1152 -128 0
v -1120 -128 0
v -1088 -160 0
v -1120 -160 0
v -1120 -128 0
v -1088 -128 0
v -1056 -160 0
v -1088 -160 0
v -1088 -128 0
v -1056 -128 0
v -1024 -160 0
v -1056 -160 0
v -1056 -128 0
v -1024 -128 0
v -992 -160 0
v -1024 -160 0
v -1024 -128 0
v -992 -128 0

# Texture cooridinates (Count = 22)
vt 0.2 0.82
vt 0.3 0.82
vt 0.3 0.83
vt 0.2 0.83
vt 0.6 0.99
vt 0.7 0.99
vt 0.7 1
vt 0.6 1
vt 0.4 0.82
vt 0.4 0.83
vt 0.8 0.99
vt 0.8 1
vt 0.5 0.99
vt 0.5 1
vt 0.3 0.81
vt 0.4 0.81
vt 0.2 0.81
vt 0.1 0.81
vt 0.1 0.82
vt 0.3 0.8
vt 0.4 0.8
vt 0.2 0.8

# Normal
vn 0 0 -1

# Mesh description
g map1_mesh_0006

# Faces
f 1/1/1 2/2/1 3/3/1 4/4/1
f 5/5/1 6/6/1 7/7/1 8/8/1
f 9/1/1 10/2/1 11/3/1 12/4/1
f 13/2/1 14/9/1 15/10/1 16/3/1
f 17/1/1 18/2/1 19/3/1 20/4/1
f 21/6/1 22/11/1 23/12/1 24/7/1
f 25/6/1 26/11/1 27/12/1 28/7/1
f 29/6/1 30/11/1 31/12/1 32/7/1
f 33/6/1 34/11/1 35/12/1 36/7/1
f 37/6/1 38/11/1 39/12/1 40/7/1
f 41/6/1 42/11/1 43/12/1 44/7/1
f 45/6/1 46/11/1 47/12/1 48/7/1
f 49/6/1 50/11/1 51/12/1 52/7/1
f 53/6/1 54/11/1 55/12/1 56/7/1
f 57/1/1 58/2/1 59/3/1 60/4/1
f 61/13/1 62/5/1 63/8/1 64/14/1
f 65/13/1 66/5/1 67/8/1 68/14/1
f 69/2/1 70/9/1 71/10/1 72/3/1
f 73/1/1 74/2/1 75/3/1 76/4/1
f 77/13/1 78/5/1 79/8/1 80/14/1
f 81/13/1 82/5/1 83/8/1 84/14/1
f 85/1/1 86/2/1 87/3/1 88/4/1
f 89/15/1 90/16/1 91/9/1 92/2/1
f 93/17/1 94/15/1 95/2/1 96/1/1
f 97/18/1 98/17/1 99/1/1 100/19/1
f 101/1/1 102/2/1 103/3/1 104/4/1
f 105/2/1 106/9/1 107/10/1 108/3/1
f 109/1/1 110/2/1 111/3/1 112/4/1
f 113/20/1 114/21/1 115/16/1 116/15/1
f 117/22/1 118/20/1 119/15/1 120/17/1
f 121/2/1 122/9/1 123/10/1 124/3/1
f 125/1/1 126/2/1 127/3/1 128/4/1
f 129/1/1 130/2/1 131/3/1 132/4/1
f 133/1/1 134/2/1 135/3/1 136/4/1

